# xmcd
#
# Track frame offsets:
#	150
#	18598
#	34835
#	51058
#	66502
#	83418
#	101279
#	117077
#	139724
#	156197
#	169272
#	186111
#	201625
#	216054
#	231196
#	241792
#
# Disc length: 3366 seconds
#
# Revision: 0
# Processed by: cddbd v1.5.2PL0 Copyright (c) Steve Scherf et al.
# Submitted via: dBpowerAMP V4.0
#
DISCID=d80d2410
DTITLE=Various Artist - CDX 463 Dec. 2008
DYEAR=2008
DGENRE=Country
TTITLE0=Little Big Town - Good Lord Willing
TTITLE1=Rodney Atkins - It's America
TTITLE2=Point Of Grace - I Wish 
TTITLE3=Bellamy Brothers - Lord Help Me Be The Kind Of Person (My Dog Thinks I Am)
TTITLE4=Jaso Aldean - She's Country
TTITLE5=Josh Gracin - Telluride
TTITLE6=George Ducas - Walk Through This World
TTITLE7=Rob Campbell - Angel Of Love
TTITLE8=Roy Martin - Love's Junkyard
TTITLE9=Derek Joseph - No Cool Way
TTITLE10=Stephanie Williams - Real Fire
TTITLE11=Rob Heath - She Can't Cry
TTITLE12=Todd Fritsch - Mary Had A little Boy
TTITLE13=Dawn Sears and Tess Sears - Silent Night
TTITLE14=Parker - Smith - Rockin' Around The Christmas Tree
TTITLE15=Parker - Smith - Winter Wonderland
EXTD=
EXTT0=
EXTT1=
EXTT2=
EXTT3=
EXTT4=
EXTT5=
EXTT6=
EXTT7=
EXTT8=
EXTT9=
EXTT10=
EXTT11=
EXTT12=
EXTT13=
EXTT14=
EXTT15=
PLAYORDER=
